<?xml version="1.0" encoding="UTF-8" standalone="no"?>
<!DOCTYPE svg PUBLIC "-//W3C//DTD SVG 1.1//EN"
 "http://www.w3.org/Graphics/SVG/1.1/DTD/svg11.dtd">
<!-- Generated by graphviz version 2.48.0 (0)
 -->
<!-- Title: trafficlight Pages: 1 -->
<svg width="234pt" height="277pt"
 viewBox="0.00 0.00 233.75 276.60" xmlns="http://www.w3.org/2000/svg" xmlns:xlink="http://www.w3.org/1999/xlink">
<g id="graph0" class="graph" transform="scale(1 1) rotate(0) translate(4 272.6)">
<title>trafficlight</title>
<polygon fill="white" stroke="transparent" points="-4,4 -4,-272.6 229.75,-272.6 229.75,4 -4,4"/>
<!-- Green -->
<g id="node1" class="node">
<title>Green</title>
<ellipse fill="none" stroke="black" cx="80.75" cy="-192" rx="32.49" ry="18"/>
<text text-anchor="middle" x="80.75" y="-188.3" font-family="Times,serif" font-size="14.00">Green</text>
</g>
<!-- Amber -->
<g id="node2" class="node">
<title>Amber</title>
<ellipse fill="none" stroke="black" cx="35.75" cy="-105" rx="36" ry="18"/>
<text text-anchor="middle" x="35.75" y="-101.3" font-family="Times,serif" font-size="14.00">Amber</text>
</g>
<!-- Green&#45;&gt;Amber -->
<g id="edge1" class="edge">
<title>Green&#45;&gt;Amber</title>
<path fill="none" stroke="black" d="M55.14,-180.71C44.67,-175.08 33.65,-166.97 27.75,-156 23.88,-148.81 23.87,-140.27 25.43,-132.29"/>
<polygon fill="black" stroke="black" points="28.8,-133.2 28.06,-122.64 22.05,-131.36 28.8,-133.2"/>
<text text-anchor="middle" x="43.25" y="-144.8" font-family="Times,serif" font-size="14.00">Reset</text>
</g>
<!-- Green&#45;&gt;Amber -->
<g id="edge2" class="edge">
<title>Green&#45;&gt;Amber</title>
<path fill="none" stroke="black" d="M74.1,-174C70.04,-164.17 64.54,-151.67 58.75,-141 56.94,-137.67 54.91,-134.25 52.84,-130.91"/>
<polygon fill="black" stroke="black" points="55.69,-128.89 47.33,-122.39 49.81,-132.68 55.69,-128.89"/>
<text text-anchor="middle" x="101.75" y="-144.8" font-family="Times,serif" font-size="14.00">TimerExpire</text>
</g>
<!-- Amber&#45;&gt;Amber -->
<g id="edge3" class="edge">
<title>Amber&#45;&gt;Amber</title>
<path fill="none" stroke="black" d="M68.02,-112.86C79.82,-113.08 89.49,-110.46 89.49,-105 89.49,-101.25 84.92,-98.84 78.23,-97.77"/>
<polygon fill="black" stroke="black" points="78.21,-94.26 68.02,-97.14 77.78,-101.25 78.21,-94.26"/>
<text text-anchor="middle" x="104.99" y="-101.3" font-family="Times,serif" font-size="14.00">Reset</text>
</g>
<!-- Red -->
<g id="node3" class="node">
<title>Red</title>
<ellipse fill="none" stroke="black" cx="119.75" cy="-18" rx="27" ry="18"/>
<text text-anchor="middle" x="119.75" y="-14.3" font-family="Times,serif" font-size="14.00">Red</text>
</g>
<!-- Amber&#45;&gt;Red -->
<g id="edge4" class="edge">
<title>Amber&#45;&gt;Red</title>
<path fill="none" stroke="black" d="M27.47,-87.36C23.57,-76.94 21.06,-63.7 27.75,-54 40.14,-36.03 63.07,-27.28 82.94,-23.02"/>
<polygon fill="black" stroke="black" points="83.77,-26.43 92.97,-21.18 82.51,-19.54 83.77,-26.43"/>
<text text-anchor="middle" x="62.75" y="-57.8" font-family="Times,serif" font-size="14.00">TimerExpire</text>
</g>
<!-- Red&#45;&gt;Green -->
<g id="edge6" class="edge">
<title>Red&#45;&gt;Green</title>
<path fill="none" stroke="black" d="M132.39,-34.05C136.54,-39.9 140.62,-46.89 142.75,-54 155.74,-97.44 163.78,-116.94 140.75,-156 135.27,-165.29 126.3,-172.36 116.94,-177.63"/>
<polygon fill="black" stroke="black" points="115.32,-174.52 107.95,-182.14 118.46,-180.78 115.32,-174.52"/>
<text text-anchor="middle" x="190.75" y="-101.3" font-family="Times,serif" font-size="14.00">TimerExpire</text>
</g>
<!-- Red&#45;&gt;Amber -->
<g id="edge5" class="edge">
<title>Red&#45;&gt;Amber</title>
<path fill="none" stroke="black" d="M115.33,-35.82C111.9,-46.32 106.28,-59.58 97.75,-69 90.65,-76.83 81.38,-83.34 72.18,-88.53"/>
<polygon fill="black" stroke="black" points="70.33,-85.55 63.08,-93.28 73.57,-91.75 70.33,-85.55"/>
<text text-anchor="middle" x="123.25" y="-57.8" font-family="Times,serif" font-size="14.00">Reset</text>
</g>
<g id="node4" class="node">
<title></title>
<ellipse fill="black" stroke="black" cx="80.75" cy="-257.8" rx="10.8" ry="10.8"/>
</g>
<!-- &#45;&gt;Green -->
<g id="edge7" class="edge">
<title>&#45;&gt;Green</title>
<path fill="none" stroke="black" d="M80.75,-246.83C80.75,-239.7 80.75,-229.74 80.75,-220.32"/>
<polygon fill="black" stroke="black" points="84.25,-220.1 80.75,-210.1 77.25,-220.1 84.25,-220.1"/>
</g>
</g>
</svg>
